<?xml version="1.0" encoding="utf-8"?>
<svg xmlns="http://www.w3.org/2000/svg" viewBox="0 0 500 500" xmlns:bx="https://boxy-svg.com" width="500px" height="500px"><defs><bx:export><bx:file format="svg" path="Sin título.svg"/></bx:export></defs><style type="text/css">
	.st0{display:none;}
	.st1{display:inline;fill:#FFFFFF;stroke:#000000;stroke-miterlimit:10;}
	.st2{fill:none;stroke:#000000;stroke-width:51;stroke-miterlimit:10;}
	.st3{fill:none;stroke:#000000;stroke-width:40;stroke-miterlimit:10;}
	.st4{fill:none;stroke:#000000;stroke-width:51;stroke-linecap:round;stroke-miterlimit:10;}
</style><g id="Capa_2" class="st0" transform="matrix(0.817076, 0, 0, 0.817076, -352.022954, -65.40381)" style=""><path class="st1" d="M1125.5,278.5"/><image style="display:inline;overflow:visible;" width="269" height="270" transform="matrix(2.0452 0 0 1.9481 397 112)"/></g><g id="Capa_1" transform="matrix(0.817076, 0, 0, 0.817076, -352.022954, -65.40381)" style=""><g><path class="st2" d="M543,458l-53.28-162.26c-7-21.31,4.82-44.13,26.26-50.72l376.93-115.78c4.08-1.25,7.03,3.91,3.87,6.78 L543,458z" style="stroke: rgb(255, 255, 255);"/><path class="st2" d="M 703.853 426.671 L 979.791 177.07 C 982.721 174.42 987.541 177.07 986.431 180.72 L 905.211 448.94 C 900.371 464.94 884.631 475.99 866.711 475.99 L 649.591 475.99 L 703.853 426.671 Z" style="stroke: rgb(255, 255, 255);"/><path class="st3" d="M543,421v108.5c0,12.86,15.12,19.76,24.83,11.33L647,472" style="stroke: rgb(255, 255, 255);"/><path class="st4" d="M 551.468 607.988 L 550.99 643.252 C 550.99 655.332 566.481 661.358 575.493 652.788 L 694.819 539.426" style="stroke: rgb(255, 255, 255);"/></g></g></svg>