<?xml version="1.0" encoding="utf-8"?>
<svg xmlns="http://www.w3.org/2000/svg" viewBox="0 0 500 500" xmlns:bx="https://boxy-svg.com" width="500px" height="500px"><defs><bx:export><bx:file format="svg" path="Sin título.svg"/></bx:export><linearGradient gradientUnits="userSpaceOnUse" x1="683.588" y1="144.623" x2="683.588" y2="458.637" id="gradient-1" gradientTransform="matrix(0.999369, -0.035511, 0.044658, 1.256788, -42.839251, 320.195982)"><stop offset="0" style="stop-color: rgb(100% 100% 100%)"/><stop offset="1" style="stop-color: rgb(56.687% 56.687% 56.687%)"/></linearGradient><linearGradient gradientUnits="userSpaceOnUse" x1="798.891" y1="186.64" x2="798.891" y2="473.011" id="gradient-2" gradientTransform="matrix(0.969777, -0.243991, 0.15303, 0.608242, 2.59458, 604.60358)"><stop offset="0" style="stop-color: rgb(100% 100% 100%)"/><stop offset="1" style="stop-color: rgb(56.687% 56.687% 56.687%)"/></linearGradient><linearGradient gradientUnits="userSpaceOnUse" x1="616.765" y1="536.365" x2="616.765" y2="648.421" id="gradient-3" gradientTransform="matrix(0.998383, -0.056853, 0.109504, 1.922961, -57.736434, -459.978801)"><stop offset="0" style="stop-color: rgb(100% 100% 100%)"/><stop offset="1" style="stop-color: rgb(56.687% 56.687% 56.687%)"/></linearGradient><linearGradient gradientUnits="userSpaceOnUse" x1="590.128" y1="423.317" x2="590.128" y2="541.239" id="gradient-4" gradientTransform="matrix(0.999974, 0.007232, -0.014866, 2.055431, 2.802261, -366.908788)"><stop offset="0" style="stop-color: rgb(100% 100% 100%)"/><stop offset="1" style="stop-color: rgb(56.687% 56.687% 56.687%)"/></linearGradient><linearGradient gradientUnits="userSpaceOnUse" x1="729.995" y1="91.93" x2="729.995" y2="702.361" id="gradient-0" gradientTransform="matrix(0.706429, 0.707784, -0.876228, 0.87455, 552.870006, -463.911223)"><stop offset="0" style="stop-color: rgb(15, 19, 21);"/><stop offset="1" style="stop-color: rgb(56, 59, 62);"/></linearGradient></defs><style type="text/css">
	.st0{display:none;}
	.st1{display:inline;fill:#FFFFFF;stroke:#000000;stroke-miterlimit:10;}
	.st2{fill:none;stroke:#000000;stroke-width:51;stroke-miterlimit:10;}
	.st3{fill:none;stroke:#000000;stroke-width:40;stroke-miterlimit:10;}
	.st4{fill:none;stroke:#000000;stroke-width:51;stroke-linecap:round;stroke-miterlimit:10;}
</style><g id="Capa_2" class="st0" transform="matrix(0.817076, 0, 0, 0.817076, -347.031036, -73.496437)" style=""><path class="st1" d="M1125.5,278.5"/><image style="display:inline;overflow:visible;" width="269" height="270" transform="matrix(2.0452 0 0 1.9481 397 112)" /></g><g id="Capa_1" transform="matrix(0.817076, 0, 0, 0.817076, -347.031036, -73.496437)" style=""><g><rect width="610.431" height="610.431" rx="99.045" x="424.779" y="91.93" style="paint-order: fill; fill-rule: nonzero; fill: url(&quot;#gradient-0&quot;);" ry="99.045"/><path class="st2" d="M 540.489 458.637 L 489.628 303.745 C 482.946 283.403 494.23 261.619 514.696 255.329 L 874.509 144.806 C 878.404 143.613 881.22 148.539 878.204 151.278 L 540.489 458.637 Z" style="stroke-width: 46.5073px; stroke: url(&quot;#gradient-1&quot;);"/><path class="st2" d="M 689.84 425.932 L 953.247 187.665 C 956.044 185.136 960.645 187.665 959.585 191.15 L 882.054 447.189 C 877.433 462.463 862.408 473.011 845.302 473.011 L 638.042 473.011 L 689.84 425.932 Z" style="stroke-width: 46.5073px; stroke: url(&quot;#gradient-2&quot;);"/><path class="st3" d="M 540.489 423.317 L 540.489 526.89 C 540.489 539.166 554.922 545.753 564.191 537.706 L 639.766 472.001" style="stroke-width: 46.5073px; stroke: url(&quot;#gradient-4&quot;);"/><path class="st4" d="M 548.572 601.814 L 548.116 635.477 C 548.116 647.008 562.904 652.76 571.506 644.58 L 685.414 536.365" style="stroke-width: 39.164px; stroke: url(&quot;#gradient-3&quot;);"/></g></g></svg>
